<svg width="34" height="34" viewBox="0 0 34 34" fill="none" xmlns="http://www.w3.org/2000/svg">
<path d="M14.166 14.1665V11.9165C14.166 10.8119 15.0614 9.9165 16.166 9.9165H17.8327C18.9373 9.9165 19.8327 10.8119 19.8327 11.9165V14.1665" stroke="#2C2C34" stroke-width="2" stroke-linecap="round" stroke-linejoin="round"/>
<path d="M20.6673 14.1665H13.334C12.2294 14.1665 11.334 15.0619 11.334 16.1665V20.6665C11.334 21.7711 12.2294 22.6665 13.334 22.6665H20.6673C21.7719 22.6665 22.6673 21.7711 22.6673 20.6665V16.1665C22.6673 15.0619 21.7719 14.1665 20.6673 14.1665Z" stroke="#2C2C34" stroke-width="2" stroke-linecap="round" stroke-linejoin="round"/>
<path d="M31.1673 17.0002C31.1673 9.17613 24.8247 2.8335 17.0007 2.8335C9.17662 2.8335 2.83398 9.17613 2.83398 17.0002C2.83398 24.8242 9.17662 31.1668 17.0007 31.1668C22.563 31.1668 27.3766 27.9611 29.6947 23.2965" stroke="#2C2C34" stroke-width="2" stroke-linecap="round"/>
<path d="M31.166 17.0002L26.916 15.5835" stroke="#2C2C34" stroke-width="2" stroke-linecap="round" stroke-linejoin="round"/>
</svg>
