<svg width="34" height="34" viewBox="0 0 34 34" fill="none" xmlns="http://www.w3.org/2000/svg">
<path d="M22.6673 8.50016C22.6673 5.37055 20.1303 2.8335 17.0007 2.8335C13.871 2.8335 11.334 5.37055 11.334 8.50016" stroke="#2C2C34" stroke-width="2" stroke-linecap="round" stroke-linejoin="round"/>
<path d="M6.46321 13.4638C6.81768 10.628 9.22829 8.5 12.0861 8.5H21.9146C24.7724 8.5 27.183 10.628 27.5375 13.4638L28.9542 24.7971C29.3769 28.1793 26.7397 31.1667 23.3313 31.1667H10.6695C7.26097 31.1667 4.62378 28.1793 5.04655 24.7971L6.46321 13.4638Z" stroke="#2C2C34" stroke-width="2" stroke-linejoin="round"/>
<path d="M17.3756 16.6244L17 17.0001L16.6243 16.6244C15.587 15.5871 13.9052 15.5871 12.8678 16.6244C11.8305 17.6618 11.8305 19.3436 12.8678 20.3809L15.4974 23.0105C16.3273 23.8404 17.6727 23.8404 18.5026 23.0105L21.1322 20.3809C22.1695 19.3436 22.1695 17.6618 21.1322 16.6244C20.0948 15.5871 18.413 15.5871 17.3756 16.6244Z" stroke="#2C2C34" stroke-width="2" stroke-linejoin="round"/>
</svg>
