<svg width="34" height="34" viewBox="0 0 34 34" fill="none" xmlns="http://www.w3.org/2000/svg">
<path d="M23.0106 14.9965C21.9041 16.103 20.1102 16.103 19.0037 14.9965C17.8972 13.89 17.8972 12.096 19.0037 10.9895C20.1102 9.88305 21.9041 9.88305 23.0106 10.9895C24.1171 12.096 24.1171 13.89 23.0106 14.9965Z" stroke="#2C2C34" stroke-width="2"/>
<path d="M13.3333 6.64298C14.5189 5.45735 16.1565 4.84205 17.8162 4.95858L23.4323 5.35287C26.2366 5.54974 28.4508 7.76399 28.6477 10.5682L29.042 16.1843C29.1585 17.8441 28.5432 19.4816 27.3576 20.6673L18.0567 29.9682C15.8136 32.2113 12.2013 32.2357 9.98829 30.0227L3.97788 24.0123C1.76491 21.7993 1.78931 18.187 4.03237 15.9439L13.3333 6.64298Z" stroke="#2C2C34" stroke-width="2" stroke-linejoin="round"/>
</svg>
