<svg width="24" height="24" viewBox="0 0 24 24" fill="none" xmlns="http://www.w3.org/2000/svg">
<path fill-rule="evenodd" clip-rule="evenodd" d="M3.32934 6.66451C3.51459 6.29403 3.96509 6.14386 4.33557 6.3291L12.0002 10.1614L19.6648 6.3291C20.0352 6.14386 20.4857 6.29403 20.671 6.66451C20.8562 7.03499 20.7061 7.4855 20.3356 7.67074L12.3356 11.6707C12.1244 11.7763 11.8759 11.7763 11.6648 11.6707L3.66475 7.67074C3.29427 7.4855 3.1441 7.03499 3.32934 6.66451Z" fill="#2C2C34"/>
<path fill-rule="evenodd" clip-rule="evenodd" d="M10.061 1.67739C11.2948 1.10754 12.7052 1.10754 13.939 1.67739L18.939 3.98673C20.66 4.78158 21.75 6.54318 21.75 8.46617V15.5338C21.75 17.4568 20.66 19.2184 18.939 20.0133L13.939 22.3226C12.7052 22.8925 11.2948 22.8925 10.061 22.3226L5.06097 20.0133C3.34004 19.2184 2.25 17.4568 2.25 15.5338V8.46617C2.25 6.54318 3.34004 4.78158 5.06097 3.98673L10.061 1.67739ZM13.3101 3.03915C12.4753 2.65362 11.5247 2.65362 10.6899 3.03915L5.68993 5.3485C4.52183 5.88801 3.75 7.1037 3.75 8.46617V15.5338C3.75 16.8963 4.52184 18.112 5.68993 18.6515L10.6899 20.9608C11.5247 21.3464 12.4753 21.3464 13.3101 20.9608L18.3101 18.6515C19.4782 18.112 20.25 16.8963 20.25 15.5338V8.46617C20.25 7.1037 19.4782 5.88801 18.3101 5.3485L13.3101 3.03915Z" fill="#2C2C34"/>
<path fill-rule="evenodd" clip-rule="evenodd" d="M7.34452 3.63566C7.54568 3.27357 8.00228 3.14311 8.36437 3.34427L17.3644 8.34427C17.6025 8.47655 17.7501 8.72752 17.7501 8.99989V19.4999C17.7501 19.9141 17.4143 20.2499 17.0001 20.2499C16.5859 20.2499 16.2501 19.9141 16.2501 19.4999V9.4412L7.6359 4.65551C7.27382 4.45435 7.14336 3.99775 7.34452 3.63566Z" fill="#2C2C34"/>
<path fill-rule="evenodd" clip-rule="evenodd" d="M12 10.25C12.4142 10.25 12.75 10.5858 12.75 11V22C12.75 22.4142 12.4142 22.75 12 22.75C11.5858 22.75 11.25 22.4142 11.25 22V11C11.25 10.5858 11.5858 10.25 12 10.25Z" fill="#2C2C34"/>
</svg>
