<svg width="46" height="46" viewBox="0 0 46 46" fill="none" xmlns="http://www.w3.org/2000/svg">
<path d="M19.8877 5.21689C21.87 4.33588 24.1329 4.33593 26.1152 5.21689L35.6562 9.45811C38.4462 10.6981 40.2773 13.4845 40.082 16.5313C39.3321 28.2187 35.9913 33.5025 26.959 39.6319C24.5753 41.2495 21.4304 41.246 19.0449 39.631C10.0402 33.5347 6.57501 28.3242 5.88572 16.4903C5.70961 13.4636 7.53801 10.7061 10.3086 9.47471L19.8877 5.21689ZM29.4101 16.4972C28.9945 16.1338 28.3626 16.1764 27.999 16.5919L21.9209 23.5382L17.8769 20.3028C17.4457 19.9578 16.8157 20.0278 16.4707 20.4591C16.1261 20.8903 16.1959 21.5194 16.6269 21.8644L20.6719 25.0997C21.5076 25.7683 22.7219 25.661 23.4267 24.8556L29.5049 17.9083C29.8682 17.4927 29.8257 16.8607 29.4101 16.4972Z" fill="#3B3B45"/>
</svg>
