<svg width="46" height="46" viewBox="0 0 46 46" fill="none" xmlns="http://www.w3.org/2000/svg">
<path fill-rule="evenodd" clip-rule="evenodd" d="M21.084 5.75H24.9173C34.4442 5.75 42.1673 13.4731 42.1673 23C42.1673 32.5269 34.4442 40.25 24.9173 40.25H11.5007C7.26647 40.25 3.83398 36.8175 3.83398 32.5833V23C3.83398 13.4731 11.5571 5.75 21.084 5.75ZM16.3827 25.8502C15.8397 25.271 14.93 25.2416 14.3508 25.7846C13.7716 26.3276 13.7423 27.2373 14.2853 27.8165C16.8746 30.5784 19.8664 32.1042 23.0007 32.1042C26.1349 32.1042 29.1267 30.5784 31.716 27.8165C32.259 27.2373 32.2297 26.3276 31.6505 25.7846C31.0713 25.2416 30.1616 25.271 29.6186 25.8502C27.4163 28.1993 25.1372 29.2292 23.0007 29.2292C20.8641 29.2292 18.585 28.1993 16.3827 25.8502Z" fill="#3B3B45"/>
</svg>
