<svg width="46" height="46" viewBox="0 0 46 46" fill="none" xmlns="http://www.w3.org/2000/svg">
<path d="M23.958 32.583V38.333H5.83301C4.72844 38.333 3.83301 37.4376 3.83301 36.333V34.583C3.83317 33.4786 4.72854 32.583 5.83301 32.583H23.958ZM40.166 13.417C41.2706 13.417 42.166 14.3124 42.166 15.417V36.333C42.166 37.4376 41.2706 38.333 40.166 38.333H28.833C27.7284 38.333 26.833 37.4376 26.833 36.333V15.417C26.833 14.3124 27.7284 13.417 28.833 13.417H40.166ZM36.334 7.66699C37.4384 7.66717 38.334 8.56253 38.334 9.66699V10.542H25.959C24.8544 10.542 23.959 11.4374 23.959 12.542V29.708H7.66699V9.66699C7.66699 8.56242 8.56242 7.66699 9.66699 7.66699H36.334Z" fill="#3B3B45"/>
</svg>
