<svg width="46" height="46" viewBox="0 0 46 46" fill="none" xmlns="http://www.w3.org/2000/svg">
<path d="M32.5825 39.3357C32.5824 40.6916 31.2135 41.6185 29.9546 41.115L23.7114 38.6179C23.2545 38.4352 22.7445 38.4352 22.2876 38.6179L16.0444 41.115C14.7856 41.6184 13.4166 40.6915 13.4165 39.3357V33.8992C13.7802 33.9885 14.1558 34.0492 14.5395 34.0799L16.3345 34.2234C16.604 34.2449 16.8601 34.3508 17.0659 34.5262L18.437 35.6941C21.0662 37.9347 24.9327 37.9347 27.562 35.6941L28.9331 34.5262C29.1389 34.3508 29.3951 34.2449 29.6645 34.2234L31.4604 34.0799C31.844 34.0492 32.2189 33.9885 32.5825 33.8992V39.3357ZM20.3013 4.82693C21.856 3.50201 24.143 3.50204 25.6977 4.82693L27.0688 5.99588C27.735 6.56348 28.5636 6.90673 29.436 6.97635L31.2319 7.11893C33.2679 7.28162 34.8849 8.89925 35.0474 10.9353L35.1899 12.7303C35.2596 13.6028 35.6036 14.4312 36.1714 15.0974L37.3393 16.4685C38.6643 18.0233 38.6643 20.3103 37.3393 21.865L36.1714 23.2361C35.6036 23.9024 35.2596 24.7307 35.1899 25.6033L35.0474 27.3982C34.8849 29.4343 33.2679 31.0519 31.2319 31.2146L29.436 31.3572C28.5636 31.4268 27.735 31.77 27.0688 32.3377L25.6977 33.5066C24.143 34.8315 21.856 34.8315 20.3013 33.5066L18.9302 32.3377C18.264 31.7701 17.4354 31.4268 16.563 31.3572L14.7681 31.2146C12.7318 31.0521 11.1151 29.4344 10.9526 27.3982L10.8091 25.6033C10.7395 24.7309 10.3962 23.9023 9.8286 23.2361L8.65966 21.865C7.33477 20.3103 7.33483 18.0233 8.65966 16.4685L9.8286 15.0974C10.3962 14.4312 10.7394 13.6027 10.8091 12.7303L10.9526 10.9353C11.1151 8.89911 12.7318 7.28142 14.7681 7.11893L16.563 6.97635C17.4354 6.90673 18.264 6.56341 18.9302 5.99588L20.3013 4.82693Z" fill="#3B3B45"/>
</svg>
