<svg width="24" height="24" viewBox="0 0 24 24" fill="none" xmlns="http://www.w3.org/2000/svg">
<path fill-rule="evenodd" clip-rule="evenodd" d="M5 3.75C4.30964 3.75 3.75 4.30964 3.75 5C3.75 13.4223 10.5777 20.25 19 20.25C19.6904 20.25 20.25 19.6904 20.25 19V17.3541C20.25 16.8429 19.9388 16.3833 19.4642 16.1935L17.4301 15.3798C16.8265 15.1384 16.1386 15.3999 15.8478 15.9814L15.6708 16.3354C15.5196 16.6379 15.1846 16.8018 14.8529 16.7354L15 16C14.8529 16.7354 14.8532 16.7355 14.8529 16.7354L14.8519 16.7352L14.8507 16.735L14.8475 16.7343L14.8385 16.7325L14.8097 16.7263C14.7859 16.721 14.7529 16.7135 14.7114 16.7034C14.6285 16.6832 14.5115 16.6528 14.3665 16.6101C14.0768 16.525 13.6734 16.3903 13.2046 16.1894C12.2704 15.789 11.0561 15.1167 9.96967 14.0303C8.88325 12.9439 8.21099 11.7296 7.81064 10.7954C7.60973 10.3266 7.47504 9.92316 7.38985 9.6335C7.34721 9.48851 7.31682 9.37154 7.29664 9.28859C7.28655 9.2471 7.279 9.21408 7.27374 9.19026L7.26753 9.1615L7.26566 9.15247L7.26501 9.14932L7.26477 9.14809C7.26472 9.14785 7.26456 9.14709 8 9L7.26456 9.14709C7.19824 8.81544 7.36208 8.48043 7.66459 8.32918L8.01861 8.15217C8.60008 7.86143 8.86163 7.17351 8.62018 6.5699L7.80653 4.53576C7.6167 4.06119 7.15706 3.75 6.64593 3.75H5ZM8.88322 9.38709C10.0255 8.69729 10.5165 7.27171 10.0129 6.01281L9.19925 3.97868C8.78162 2.93462 7.77042 2.25 6.64593 2.25H5C3.48122 2.25 2.25 3.48122 2.25 5C2.25 14.2508 9.74923 21.75 19 21.75C20.5188 21.75 21.75 20.5188 21.75 19V17.3541C21.75 16.2296 21.0654 15.2184 20.0213 14.8008L17.9872 13.9871C16.7283 13.4835 15.3027 13.9745 14.6129 15.1168C14.3906 15.0457 14.111 14.9459 13.7954 14.8106C12.9796 14.461 11.9439 13.8833 11.0303 12.9697C10.1167 12.0561 9.53901 11.0204 9.18936 10.2046C9.05411 9.88897 8.95433 9.60941 8.88322 9.38709ZM15.5303 2.46967C15.8232 2.76256 15.8232 3.23744 15.5303 3.53033L14.2374 4.82322C14.1398 4.92085 14.1398 5.07914 14.2374 5.17678L15.5303 6.46967C15.8232 6.76256 15.8232 7.23744 15.5303 7.53033C15.2374 7.82322 14.7626 7.82322 14.4697 7.53033L13.1768 6.23744C12.4934 5.55402 12.4934 4.44598 13.1768 3.76256L14.4697 2.46967C14.7626 2.17678 15.2374 2.17678 15.5303 2.46967ZM19.5303 2.46967C19.8232 2.76256 19.8232 3.23744 19.5303 3.53033L18.8107 4.25H21C21.4142 4.25 21.75 4.58579 21.75 5C21.75 5.41421 21.4142 5.75 21 5.75H18.8107L19.5303 6.46967C19.8232 6.76256 19.8232 7.23744 19.5303 7.53033C19.2374 7.82322 18.7626 7.82322 18.4697 7.53033L17.1768 6.23744C16.4934 5.55402 16.4934 4.44598 17.1768 3.76256L18.4697 2.46967C18.7626 2.17678 19.2374 2.17678 19.5303 2.46967Z" fill="#2C2C34"/>
</svg>
