<svg width="426" height="160" viewBox="0 0 426 160" fill="none" xmlns="http://www.w3.org/2000/svg">
<path d="M86.2385 98.8343H100V122.24H86.2385V144H60.7339V122.24H0V98.8343L42.7523 16H69.9083L27.3395 98.8343H60.7339V68.48H86.2385V98.8343Z" fill="#2C2C34"/>
<path d="M221.19 0L276.643 0.00357694C276.659 2.94944 276.633 5.89497 276.565 8.83986L284.805 8.88542L284.714 39.476C274.244 38.9616 259.583 39.4175 248.708 39.4207L248.852 48.664C255.692 48.2993 263.936 48.4914 270.828 48.6086C270.737 50.1486 270.76 51.884 270.744 53.4435C261.269 53.1081 250.287 53.5575 240.601 53.4598C240.803 58.8514 240.39 64.6728 240.689 69.944C245.827 69.8691 250.968 69.8625 256.109 69.9277L256.086 82.1337L251.232 82.0816C251.238 79.5779 251.228 77.4356 251.463 74.9481C248.786 74.5965 243.613 74.6974 240.666 74.6811C240.491 82.176 240.38 93.936 240.722 101.327C238.788 101.112 235.506 101.206 233.334 101.112C233.207 104.364 233.276 108.213 233.263 111.511C230.987 111.443 228.18 111.57 225.866 111.609L225.908 118.937L219.338 118.918L219.318 150.789L226.666 150.9C226.592 152.996 226.539 154.243 226.725 156.34L213.738 156.376C213.783 153.172 214.066 136.809 213.552 134.643C212.36 134.136 211.126 134.292 209.814 134.311L206.36 134.328L206.591 127.08C203.547 126.992 200.301 127.067 197.242 127.083C197.232 129.603 197.24 131.778 197.396 134.289C194.921 134.331 192.445 134.341 189.97 134.318C189.945 136.509 189.945 138.7 189.969 140.891C187.593 140.81 184.944 140.888 182.51 140.852C182.626 143.952 182.545 147.654 182.551 150.799L189.997 150.877C189.875 152.983 189.796 154.23 189.942 156.343L176.966 156.383C177.275 147.009 176.879 136.669 177.065 127.093C174.647 127.018 172.022 127.07 169.587 127.07L169.596 118.918L162.32 118.937L162.399 111.648C160.004 111.521 157.345 111.534 154.926 111.498L154.982 104.273L148.301 104.218L148.354 97.5988C145.707 97.4165 142.806 97.5011 140.133 97.5207C140.594 84.1067 140.289 67.9058 140.159 54.3454L145.774 54.3942C145.867 59.7728 145.855 65.1514 145.739 70.53C147.876 70.6211 150.285 70.5854 152.445 70.5984L152.311 77.8816L159.762 78.0216C159.828 80.3267 159.733 83.0486 159.712 85.383C165.288 85.3309 171.368 85.1974 176.9 85.4644L177.043 77.9142C179.626 77.9207 181.659 77.924 184.217 78.1779C184.396 75.5212 184.392 72.4737 184.451 69.7844C187.717 70.0123 191.951 69.9635 195.299 70.0058L195.473 62.6119C198.89 62.6184 202.306 62.563 205.725 62.4491L205.702 55.0844C208.427 55.13 211.156 55.1235 213.881 55.0649C213.311 40.1598 213.783 22.4254 213.809 7.35129L221.128 7.2725L221.19 0ZM228.135 17.6686L235.037 17.6068L235.102 10.8012C233.172 10.7849 229.935 10.8532 228.112 10.6918C228.125 12.9572 228.19 15.4218 228.135 17.6686Z" fill="#2C2C34"/>
<path d="M235.24 131.726C240.631 131.615 291.236 131.241 293.2 132.026C293.838 132.83 293.737 133.201 293.756 134.236C280.303 134.523 266.622 134.253 253.156 134.357C250.819 134.376 236.721 134.516 235.285 134.064C234.846 133.051 235.064 133.022 235.24 131.726Z" fill="#2C2C34"/>
<path d="M132.273 131.645C135.736 131.502 157.798 131.427 160.008 131.967C160.806 132.905 160.564 132.836 160.786 134.282L142.612 134.38C140.09 134.39 134.604 134.53 132.266 134.123C131.801 133.045 132.04 133.045 132.273 131.645Z" fill="#2C2C34"/>
<path d="M132.764 157.389C135.963 157.333 142.528 157.073 145.341 157.529C146.04 158.307 145.834 158.655 145.972 159.954C142.253 159.746 136.638 160.276 133.285 159.782C132.56 158.808 132.81 158.883 132.764 157.389Z" fill="#2C2C34"/>
<path d="M156.742 147.058C159.162 147.012 165.437 146.537 167.017 147.826C167.358 148.777 167.331 148.708 167.051 149.685C164.618 149.786 158.15 150.437 156.537 149.151C156.248 148.145 156.393 148.044 156.742 147.058Z" fill="#2C2C34"/>
<path d="M284.038 154.64C284.676 154.139 285.598 154.246 286.103 154.878C286.61 155.51 286.513 156.431 285.884 156.945C285.249 157.463 284.312 157.365 283.797 156.724C283.286 156.083 283.394 155.148 284.038 154.64Z" fill="#2C2C34"/>
<path d="M411.994 98.8343H425.756V122.24H411.994V144H386.49V122.24H325.756V98.8343L368.508 16H395.664L353.095 98.8343H386.49V68.48H411.994V98.8343Z" fill="#2C2C34"/>
</svg>
