<svg width="166" height="11" viewBox="0 0 166 11" fill="none" xmlns="http://www.w3.org/2000/svg">
<g clip-path="url(#clip0_2001_164)">
<path d="M108.458 11H105.922V4.04213C105.831 4.0114 105.767 4.05683 105.681 4.10895C105.604 4.15571 105.502 4.17175 105.425 4.20382L105.061 4.35615C105.004 4.3802 104.944 4.3949 104.878 4.42296L104.371 4.6381C104.227 4.69823 104.098 4.7303 103.96 4.79979C103.872 4.84388 103.767 4.86927 103.685 4.90268C103.527 4.96548 103.372 5.06169 103.224 5.10579C103.022 5.16592 102.854 5.24743 102.669 5.3276C102.61 5.35299 102.496 5.37705 102.434 5.41045C101.871 5.71913 102.033 5.53071 101.442 5.85275C101.265 5.9503 101.458 5.79128 101.069 5.98638C100.941 6.05052 100.82 6.0719 100.687 6.13203L100.235 6.33514C100.151 6.37255 100.077 6.38591 99.9985 6.42466C99.8323 6.50618 99.6604 6.54894 99.5069 6.61441L99.0589 6.80683C99.004 6.83088 98.4391 7.04468 98.418 7.05404L97.9404 7.26784C97.8615 7.30392 97.7869 7.31193 97.7179 7.344C97.4164 7.48164 97.2558 7.51504 97.153 7.56716L96.7952 7.74755C96.4698 7.57117 96.1782 7.50302 95.8457 7.33866C95.571 7.20236 95.802 7.38944 95.247 7.08477C95.2005 7.05938 95.0878 7.04602 95.0442 7.02731L94.6892 6.8683C94.6356 6.84425 94.5554 6.83623 94.492 6.80817L93.9947 6.58635C94.0074 6.5917 93.1791 6.271 93.2326 6.29906C92.6607 5.99974 92.8311 6.18414 92.4649 5.97034C92.3775 5.91956 92.2423 5.89818 92.1733 5.86478L91.845 5.7071C91.7816 5.67637 91.7042 5.66701 91.6253 5.63494L91.1153 5.42515L90.5448 5.19131C90.3659 5.11781 90.211 5.03229 90.0222 4.9735L89.8137 4.90936C89.701 4.87462 89.5799 4.77707 89.4841 4.74634C89.3418 4.69957 89.2066 4.67151 89.0727 4.59935L88.9107 4.51116C88.5994 4.47374 88.5445 4.30003 88.1684 4.24792C88.0021 4.16507 87.8782 4.10226 87.6528 4.01674V11.0053H85.1129V0.391501C85.0932 0.326025 85.5637 0.52379 85.5327 0.510427C85.8497 0.657415 86.0469 0.701511 86.1286 0.741598L86.4836 0.91932C86.5371 0.946045 86.6794 0.946045 86.7244 0.987468C86.8667 1.11575 87.0541 1.11976 87.2034 1.18523L87.7767 1.43244C88.0148 1.53533 88.3346 1.63956 88.398 1.67029L88.767 1.84133C88.8347 1.87206 88.9643 1.89077 89.0446 1.94021C89.1854 2.02573 89.3221 2.08319 89.4813 2.09789C89.7799 2.28764 89.9349 2.29298 90.1236 2.37717L90.5533 2.56959C90.6195 2.59898 90.6927 2.61235 90.7688 2.64709L91.221 2.8502C91.3534 2.91033 91.4746 2.93171 91.6027 2.99585C91.9929 3.19094 91.8042 3.0346 91.976 3.12947C92.1 3.19762 92.2606 3.29116 92.3944 3.32724C92.5902 3.38203 92.7748 3.47289 92.9438 3.54772C92.9875 3.56776 93.0931 3.5838 93.1354 3.60652C93.6679 3.88846 93.5397 3.73079 93.9482 3.95661C94.0257 3.99937 94.1539 4.01808 94.2229 4.05149L94.5427 4.20649C94.6075 4.23856 94.6807 4.25326 94.7638 4.27865C94.9146 4.32275 95.0681 4.41227 95.2174 4.46973C95.1667 4.44969 96.026 4.78642 95.9091 4.73431L96.3852 4.94677C96.4543 4.97751 96.5219 4.98152 96.574 5.00691L96.7867 5.1138L97.0065 5.00557C97.0516 4.98419 97.1065 4.9735 97.1671 4.94811L97.6348 4.74634C97.7883 4.67952 97.9503 4.64879 98.1109 4.5606C98.194 4.51383 98.2813 4.49245 98.3771 4.47374L98.5377 4.38689C98.6673 4.31606 98.8082 4.26796 98.9462 4.25059L99.2759 4.0742C99.3252 4.04748 99.4393 4.03278 99.4886 4.0114C99.6633 3.93523 99.8351 3.86441 100.008 3.79359L100.58 3.55841L101.09 3.34862C101.176 3.31388 101.254 3.30452 101.333 3.26711C101.503 3.1856 101.666 3.09072 101.837 3.02926L102.048 2.95175L102.413 2.80209C102.469 2.77938 102.557 2.76334 102.606 2.73795C103.182 2.43863 102.874 2.63506 103.195 2.49075L103.53 2.33975C103.572 2.32104 103.685 2.30902 103.725 2.2863C104.375 1.93086 104.04 2.21147 104.515 1.94689C104.608 1.89478 104.726 1.86806 104.813 1.83331C104.974 1.7665 105.13 1.69034 105.28 1.63154L105.849 1.40839C106.033 1.33623 106.205 1.26006 106.373 1.1692C106.526 1.15316 106.669 1.09704 106.807 1.01018C106.887 0.959407 107.021 0.946045 107.091 0.912638L107.455 0.740262C107.507 0.714873 107.57 0.698839 107.642 0.677459C107.889 0.599956 108.275 0.372794 108.458 0.39551V11.0013V11Z" fill="white"/>
<path d="M2.60326 0V4.26531H18.8483L18.8314 0H21.4684V11H18.8469V6.73469H2.60326V11H0V0H2.60326Z" fill="white"/>
<path d="M145.343 0C145.343 0.00935374 145.335 0.0467687 145.347 0.0494412L145.454 0.0721574C145.494 0.0801749 145.56 0.116254 145.602 0.132289L145.997 0.289966C146.05 0.311346 146.129 0.33139 146.178 0.355442L146.539 0.527818L146.776 0.599976L147.115 0.750972C147.187 0.783042 147.297 0.796404 147.373 0.8405C147.532 0.932702 147.693 0.988824 147.848 1.04896L148.352 1.24405L148.89 1.47121C149.032 1.53134 149.168 1.57677 149.301 1.64359C149.365 1.67566 149.417 1.68902 149.508 1.70906C149.61 1.73445 149.721 1.83066 149.837 1.86941L150.097 1.95627L150.458 2.11127L150.676 2.18744C150.813 2.23554 150.941 2.31438 151.073 2.36249C151.281 2.43865 151.488 2.51883 151.706 2.6137C151.755 2.63508 151.861 2.65646 151.913 2.68319C152.505 2.99052 152.216 2.76871 152.679 3.0119C152.772 3.06001 152.898 3.0854 152.974 3.1188C153.105 3.17626 153.23 3.24575 153.361 3.29519C153.519 3.35532 153.687 3.40343 153.854 3.48494C153.935 3.52369 154.002 3.54774 154.091 3.57447C154.252 3.62391 154.412 3.74684 154.567 3.78559C154.722 3.82434 154.843 3.86844 154.977 3.94461C155.06 3.99138 155.15 4.01008 155.242 4.04215C155.484 4.12767 155.488 4.20384 155.793 4.27332C155.943 4.30673 156.097 4.41096 156.248 4.46842C156.322 4.49781 156.424 4.51652 156.501 4.55928C156.663 4.64881 156.825 4.67286 156.979 4.74502L157.413 4.94679C157.441 4.96016 157.525 4.96283 157.551 4.97619L157.701 5.05236C157.839 5.12184 157.979 5.17128 158.114 5.19934C158.323 5.30357 158.518 5.41181 158.734 5.48797L158.916 5.55211L159.282 5.70979C159.331 5.73117 159.445 5.74453 159.493 5.77126L159.823 5.95165L159.974 5.9717L160.305 6.12937C160.368 6.15877 160.444 6.16545 160.524 6.20153L161.002 6.41667C161.068 6.44606 161.129 6.45943 161.186 6.48214L161.603 6.6465L161.763 6.70663C161.874 6.74806 162.008 6.83759 162.111 6.86832C162.323 6.92979 162.506 6.99393 162.69 7.11152L162.842 7.12889L163.192 7.3173C163.27 7.35872 163.364 7.37342 163.46 7.33868V0H165.996V11H165.741C165.728 10.9626 165.669 10.9172 165.618 10.8998L165.42 10.8316L164.912 10.6165C164.773 10.5577 164.643 10.523 164.508 10.4602C164.208 10.3225 164.272 10.4067 163.898 10.1916C163.836 10.1555 163.784 10.1448 163.693 10.1274C163.553 10.1007 163.4 9.9898 163.256 9.94169C163.122 9.8976 162.985 9.85617 162.859 9.78001C162.635 9.64504 162.616 9.71587 162.263 9.54483C161.909 9.37379 162.123 9.50207 161.896 9.40185C161.77 9.34572 161.625 9.26555 161.503 9.2268C161.299 9.16266 161.133 9.08783 160.941 8.9983C160.881 8.97024 160.751 8.95821 160.688 8.91011C160.54 8.7992 160.36 8.78316 160.213 8.7217L159.637 8.47449C159.235 8.30211 159.059 8.28207 158.758 8.10569C158.697 8.07094 158.634 8.07362 158.554 8.03887L158.085 7.8371C157.992 7.79701 157.903 7.79568 157.82 7.75024L157.601 7.63132C157.555 7.60593 157.434 7.59123 157.383 7.56718C157.198 7.48032 156.979 7.39079 156.793 7.32398C156.656 7.27454 156.529 7.20639 156.391 7.14626C156.312 7.11152 156.188 7.09147 156.098 7.03802C155.953 6.95117 155.81 6.93647 155.664 6.87099L155.211 6.66788C155.211 6.66788 154.595 6.43404 154.566 6.42201L154.03 6.19084L153.42 5.95833L152.912 5.73384C152.853 5.70712 152.775 5.69643 152.727 5.67505L152.458 5.55078L152.246 5.48797L151.893 5.31292C151.843 5.28754 151.758 5.2715 151.7 5.24745L151.319 5.09111C151.269 5.07106 151.212 5.05637 151.148 5.02964L150.611 4.80114C150.554 4.77575 150.502 4.76239 150.454 4.74235L150.063 4.582C150.014 4.56195 149.92 4.54458 149.878 4.5232L149.637 4.4016C149.559 4.36285 149.483 4.35216 149.396 4.31742L148.889 4.10896C148.742 4.04883 148.61 3.99271 148.465 3.92456C148.32 3.85641 148.119 3.83503 147.825 3.67201C147.841 3.64529 147.814 3.68805 147.79 3.72546V11H145.253L145.237 0H145.339H145.343Z" fill="white"/>
<path d="M60.889 0L60.8693 8.59342L79.4823 8.59475L79.4837 11H58.2675L58.252 0H60.889Z" fill="white"/>
<path d="M39.9277 0C39.9136 0.11759 40.0193 0.12828 40.1179 0.18173C40.2658 0.260568 40.3883 0.420918 40.5109 0.535836L41.0715 1.06365L41.4787 1.44983L42.052 1.99636C42.4197 2.34645 42.5126 2.34512 42.6394 2.46671L43.2254 3.03061L43.6649 3.44752L44.2059 3.9593C44.382 4.12634 44.5341 4.2947 44.7454 4.42432C44.8553 4.49113 44.9609 4.59803 45.0581 4.69023L45.6287 5.23141L46.0386 5.6216L46.595 6.14674L46.8796 6.42869C46.9472 6.4955 47.0317 6.54495 47.1289 6.57969L49.4068 8.73238C49.48 8.78049 49.5871 8.82859 49.6561 8.89407L51.6959 10.833C51.7226 10.8423 51.81 10.8423 51.81 10.8664L51.8128 10.9987H48.2263C48.1784 10.9172 48.108 10.837 48.0291 10.7621L47.6346 10.3907L47.2106 9.98712C47.1529 9.93234 47.0317 9.90027 46.7133 9.5956L46.2259 9.12925L45.7667 8.69631L45.261 8.22327C45.0793 8.05357 44.9412 7.84512 44.6834 7.74222L42.4154 5.59888C42.376 5.56147 42.2633 5.52806 42.2196 5.48797L40.1235 3.50231C40.0404 3.45821 39.939 3.44351 39.8742 3.31924L39.3586 3.81633C39.0275 4.13435 38.9641 4.10896 38.8613 4.20651L38.4697 4.57665L37.9752 5.04567L37.5076 5.49198L37.3357 5.65367L36.7116 6.24964C36.6708 6.28839 36.5595 6.32313 36.5201 6.35921L34.0887 8.65488C34.0154 8.68962 33.9267 8.73105 33.8731 8.78183L33.3477 9.28025L31.6319 10.9105C31.6009 10.9399 31.4685 10.9399 31.4953 10.9987H27.9102C27.9172 10.9706 27.9468 10.9145 27.9693 10.8931L28.2637 10.6138L28.6892 10.2116L29.2428 9.69181C29.2977 9.64103 29.4414 9.60629 29.4977 9.53948C29.6386 9.37378 29.7922 9.2455 29.9457 9.09985L30.35 8.71501L30.9078 8.18452L31.3192 7.80236C31.4403 7.68877 31.5615 7.52442 31.6995 7.44825C31.808 7.38946 31.8615 7.36006 31.9517 7.27587L34.1563 5.18598L34.3408 5.08576L36.5173 3.02527C36.5553 2.98919 36.6652 2.96113 36.7116 2.91703L38.9698 0.777697C39.2459 0.657434 39.3966 0.420918 39.6065 0.240525C39.6938 0.164359 39.7868 0.0895287 39.8277 0.00133625H39.9291L39.9277 0Z" fill="white"/>
<path d="M126.917 0C126.939 0.0841837 127.01 0.156341 127.092 0.22449C127.31 0.407556 127.495 0.636054 127.73 0.800413C127.841 0.877915 127.932 0.938047 128.032 1.03292L128.571 1.5447L129.026 1.98032L129.478 2.40658L129.993 2.89699C130.06 2.96246 130.15 3.0119 130.235 3.04397L130.641 3.43015L131.049 3.81766L131.498 4.24526L131.825 4.55394L132.392 5.08443C132.444 5.13253 132.59 5.16861 132.648 5.23809C132.794 5.41181 132.958 5.5481 133.118 5.70177L133.557 6.12002L134.093 6.6318L134.399 6.91776C134.519 7.03 134.637 7.14359 134.753 7.26118C134.837 7.28389 134.92 7.32932 134.986 7.39346L135.586 7.96939L136.926 9.24016C136.997 9.30697 137.049 9.36042 137.153 9.37913L138.739 10.8837C138.78 10.9225 138.808 10.9639 138.818 11.0027H135.216C134.986 10.6218 134.816 10.6646 134.6 10.4548L134.228 10.094L133.659 9.55418L132.847 8.78316L132.592 8.53596C132.534 8.47983 132.492 8.43841 132.393 8.43307L130.146 6.30041L130.018 6.25765L128.015 4.3535C127.922 4.26531 127.843 4.22121 127.733 4.15707C127.657 4.11297 127.041 3.51033 126.93 3.39274C126.855 3.31256 126.757 3.33394 126.682 3.4061L126.203 3.87913L125.709 4.34548L125.288 4.74235L124.725 5.2715C124.603 5.38642 124.482 5.5481 124.334 5.62427C124.249 5.66703 124.208 5.68975 124.144 5.74988L122.071 7.71684C121.98 7.80369 121.915 7.86783 121.784 7.91594L119.458 10.1141C119.419 10.1515 119.295 10.1769 119.261 10.2129C119.161 10.3198 119.067 10.4227 118.967 10.5136L118.636 10.8143C118.574 10.8704 118.522 10.9345 118.499 11.0027H114.898C114.898 11.0027 114.907 10.9479 114.936 10.9198L117.047 8.9208C117.314 8.80855 117.443 8.61613 117.63 8.43975L118.151 7.95068L118.612 7.51373L119.148 7.00194C119.485 6.67991 119.475 6.77612 119.612 6.64516L120.002 6.27235L120.325 5.96635L120.781 5.53341L121.285 5.05369L121.763 4.59937C121.973 4.39893 121.843 4.61273 122.238 4.23324L122.729 3.7602L123.234 3.2845L123.727 2.8128L124.199 2.36249C124.269 2.29568 124.297 2.26494 124.424 2.23287L126.678 0.0935374C126.699 0.0734937 126.788 0.0855199 126.793 0.0681487L126.815 0.00534499H126.916L126.917 0Z" fill="white"/>
<path d="M42.7679 11H36.8852C36.8711 10.9158 36.9021 10.853 36.9697 10.7902L37.6402 10.1622C37.6994 10.1074 37.8459 10.0713 37.9163 9.99248C37.9868 9.91364 38.0544 9.83747 38.1248 9.77066L38.6827 9.24551L39.125 8.82994L39.6039 8.37962C39.6702 8.31682 39.8068 8.30613 39.9026 8.17651L40.5323 8.75912L42.6777 10.7916C42.7495 10.8597 42.7834 10.9105 42.7679 11Z" fill="white"/>
<path d="M129.758 11.0001H123.875V10.8732L125.295 9.53025C125.391 9.5249 125.436 9.48481 125.494 9.42869L125.747 9.18148L126.723 8.25012C126.788 8.18865 126.867 8.21404 126.926 8.26883L127.888 9.18282L128.477 9.74004L129.531 10.7436C129.686 10.7623 129.796 10.8678 129.758 11.0015V11.0001Z" fill="white"/>
</g>
<defs>
<clipPath id="clip0_2001_164">
<rect width="166" height="11" fill="white"/>
</clipPath>
</defs>
</svg>
