<svg xmlns="http://www.w3.org/2000/svg" xmlns:xlink="http://www.w3.org/1999/xlink"><symbol id="sprite-arrow" viewBox="0 0 24 24"><path d="M9.22 16.375 12.72 12l-3.5-4.375a1 1 0 0 1 1.56-1.25l4 5a1 1 0 0 1 0 1.25l-4 5a1 1 0 1 1-1.56-1.25"/></symbol><use xlink:href="#sprite-arrow" width="24" height="24" y="0"/><view id="sprite-arrow-view" viewBox="0 0 24 24"/><symbol id="sprite-cart" viewBox="0 0 20 20"><path fill-rule="evenodd" clip-rule="evenodd" d="M4.53 1.909a3.96 3.96 0 0 1 2.473-.867h5.995c.899 0 1.77.306 2.473.867l2.628 2.103c.543.434.86 1.093.86 1.789V15A3.96 3.96 0 0 1 15 18.958H5A3.96 3.96 0 0 1 1.042 15V5.801c0-.696.316-1.355.86-1.79l.39.489-.39-.488zm2.473.383c-.615 0-1.212.209-1.692.593L2.683 4.988a1.04 1.04 0 0 0-.391.813V15A2.71 2.71 0 0 0 5 17.708h10A2.71 2.71 0 0 0 17.71 15V5.801a1.04 1.04 0 0 0-.391-.813L14.69 2.885a2.7 2.7 0 0 0-1.692-.593z"/><path fill-rule="evenodd" clip-rule="evenodd" d="M6.875 5c0-.345.28-.625.625-.625h5c.345 0 .625.28.625.625v2.5a3.125 3.125 0 1 1-6.25 0zm1.25.625V7.5a1.875 1.875 0 0 0 3.75 0V5.625z"/><path fill-rule="evenodd" clip-rule="evenodd" d="M1.458 5c0-.345.28-.625.625-.625h15.833a.625.625 0 1 1 0 1.25H2.083A.625.625 0 0 1 1.458 5"/></symbol><use xlink:href="#sprite-cart" width="20" height="20" y="24"/><view id="sprite-cart-view" viewBox="0 24 20 20"/><symbol id="sprite-check" viewBox="0 0 16 16"><path d="M6.2 11.4 2.8 8l1.1-1.1 2.3 2.3 5.9-5.9 1.1 1.1z"/></symbol><use xlink:href="#sprite-check" width="16" height="16" y="44"/><view id="sprite-check-view" viewBox="0 44 16 16"/><symbol id="sprite-chevron" viewBox="0 0 20 20"><path d="m8.03 3.47 6 6a.75.75 0 0 1 0 1.06l-6 6a.75.75 0 0 1-1.06-1.06L12.44 10 6.97 4.53a.75.75 0 0 1 1.06-1.06"/></symbol><use xlink:href="#sprite-chevron" width="20" height="20" y="60"/><view id="sprite-chevron-view" viewBox="0 60 20 20"/><symbol id="sprite-close" viewBox="0 0 30 30"><path fill-rule="evenodd" clip-rule="evenodd" d="M9.034 9.034a.94.94 0 0 1 1.326 0l4.64 4.64 4.641-4.64a.937.937 0 1 1 1.326 1.326L16.327 15l4.64 4.64a.937.937 0 0 1-1.326 1.326l-4.64-4.64-4.64 4.64a.938.938 0 0 1-1.327-1.326l4.64-4.64-4.64-4.64a.94.94 0 0 1 0-1.326"/></symbol><use xlink:href="#sprite-close" width="30" height="30" y="80"/><view id="sprite-close-view" viewBox="0 80 30 30"/><symbol id="sprite-copy" viewBox="0 0 18 18"><g><path d="M11.25 9A2.25 2.25 0 0 0 9 6.75H4.5A2.25 2.25 0 0 0 2.25 9v4.5a2.25 2.25 0 0 0 2.25 2.25H9a2.25 2.25 0 0 0 2.25-2.25zm1.5 2.25h.75A2.25 2.25 0 0 0 15.75 9V4.5a2.25 2.25 0 0 0-2.25-2.25H9A2.25 2.25 0 0 0 6.75 4.5v.75H9A3.75 3.75 0 0 1 12.75 9zM17.25 9a3.75 3.75 0 0 1-3.75 3.75h-.75v.75A3.75 3.75 0 0 1 9 17.25H4.5A3.75 3.75 0 0 1 .75 13.5V9A3.75 3.75 0 0 1 4.5 5.25h.75V4.5A3.75 3.75 0 0 1 9 .75h4.5a3.75 3.75 0 0 1 3.75 3.75z"/></g></symbol><use xlink:href="#sprite-copy" width="18" height="18" y="110"/><view id="sprite-copy-view" viewBox="0 110 18 18"/><symbol id="sprite-info" viewBox="0 0 24 24"><path fill-rule="evenodd" clip-rule="evenodd" d="M12 2.75a9.25 9.25 0 1 0 0 18.5 9.25 9.25 0 0 0 0-18.5M1.25 12C1.25 6.063 6.063 1.25 12 1.25S22.75 6.063 22.75 12 17.937 22.75 12 22.75 1.25 17.937 1.25 12M12 7.75c-.69 0-1.25.56-1.25 1.25a.75.75 0 0 1-1.5 0 2.75 2.75 0 1 1 5.064 1.487 9 9 0 0 1-.562.757l-.1.124c-.155.192-.297.367-.428.548-.324.444-.474.779-.474 1.084v.5a.75.75 0 0 1-1.5 0V13c0-.8.392-1.46.761-1.967a15 15 0 0 1 .573-.73c.185-.23.343-.432.468-.628A1.25 1.25 0 0 0 12 7.75m0 7.5a.75.75 0 0 1 .75.75v1a.75.75 0 0 1-1.5 0v-1a.75.75 0 0 1 .75-.75"/></symbol><use xlink:href="#sprite-info" width="24" height="24" y="128"/><view id="sprite-info-view" viewBox="0 128 24 24"/><symbol id="sprite-link-arrow" viewBox="0 0 20 20"><path d="m5.303 13.636 8.333-8.333a.75.75 0 0 1 1.06 1.06l-8.333 8.334a.75.75 0 0 1-1.06-1.06"/><path d="M5.833 5.083h8.333a.75.75 0 0 1 .75.75v8.334a.75.75 0 0 1-1.5 0V6.583H5.833a.75.75 0 0 1 0-1.5"/></symbol><use xlink:href="#sprite-link-arrow" width="20" height="20" y="152"/><view id="sprite-link-arrow-view" viewBox="0 152 20 20"/><symbol id="sprite-play" viewBox="0 0 16 17"><path d="M14.25 6.766c1.333.77 1.333 2.695 0 3.464L3 16.726c-1.333.77-3-.193-3-1.732V2.003C0 .463 1.667-.5 3 .27z"/></symbol><use xlink:href="#sprite-play" width="16" height="17" y="172"/><view id="sprite-play-view" viewBox="0 172 16 17"/><symbol id="sprite-search" viewBox="0 0 20 20"><path d="M1.25 8.75a7.5 7.5 0 0 0 15 0 7.5 7.5 0 0 0-15 0m1.5 0a6 6 0 0 0 12 0 6 6 0 0 0-12 0" fill-rule="evenodd"/><path d="m14.28 13.22 4 4a.75.75 0 0 1-1.06 1.06l-4-4a.75.75 0 0 1 1.06-1.06"/></symbol><use xlink:href="#sprite-search" width="20" height="20" y="189"/><view id="sprite-search-view" viewBox="0 189 20 20"/><symbol id="sprite-send" viewBox="0 0 16 16"><path d="M4.143 4.903c-.605-1.36.828-2.728 2.16-2.063l7.486 3.741c1.17.585 1.17 2.253 0 2.837L6.303 13.16c-1.332.665-2.765-.703-2.16-2.063l1.09-2.453q.032-.07.056-.144H8a.5.5 0 0 0 0-1H5.29a2 2 0 0 0-.057-.144zm-1.477 3.93a.5.5 0 0 1 0 1H1.333a.5.5 0 1 1 0-1zm0-2.667a.5.5 0 0 1 0 1H1.333a.5.5 0 0 1 0-1z"/></symbol><use xlink:href="#sprite-send" width="16" height="16" y="209"/><view id="sprite-send-view" viewBox="0 209 16 16"/></svg>